<svg fill="none" height="64" viewBox="0 0 64 64" width="64" xmlns="http://www.w3.org/2000/svg"><g fill="#000"><path d="m48.19 0h-32.38c-4.1919.00397144-8.21088 1.67094-11.17497 4.63503s-4.63105856 6.98307-4.63503 11.17497v32.38c.00397144 4.1919 1.67094 8.2109 4.63503 11.175s6.98307 4.631 11.17497 4.635h32.38c4.1914-.0056 8.2095-1.673 11.1732-4.6368 2.9638-2.9637 4.6312-6.9818 4.6368-11.1732v-32.38c-.0056-4.1914-1.673-8.20948-4.6368-11.17322-2.9637-2.96375-6.9818-4.63122378-11.1732-4.63678zm-.33 20.2c-.804-.001-1.5896-.2404-2.2575-.6879-.668-.4474-1.1882-1.083-1.495-1.8261-.3067-.7432-.3862-1.5606-.2284-2.3489.1578-.7884.5459-1.5122 1.1151-2.08s1.2939-.9541 2.0827-1.11c.7887-.1558 1.6059-.0743 2.3483.2342.7424.3086 1.3767.8304 1.8225 1.4995.4458.669.6833 1.4552.6823 2.2592-.0007.5338-.1064 1.0623-.3113 1.5552-.2049.493-.5049.9407-.8828 1.3177-.378.377-.8265.6759-1.3199.8796s-1.0222.3082-1.556.3075zm-15.86-3.44c3.0142 0 5.9607.8938 8.4669 2.5684s4.4595 4.0548 5.613 6.8395 1.4553 5.849.8673 8.8053c-.5881 2.9562-2.0395 5.6718-4.1709 7.8031-2.1313 2.1314-4.8469 3.5828-7.8031 4.1709-2.9563.588-6.0206.2862-8.8053-.8673s-5.1649-3.1068-6.8395-5.613-2.5684-5.4527-2.5684-8.4669c.0058-4.0401 1.6133-7.9131 4.4701-10.7699s6.7298-4.4643 10.7699-4.4701z"/><path d="m32 41.17c1.8136 0 3.5865-.5379 5.0945-1.5455s2.6834-2.4397 3.3774-4.1153c.6941-1.6756.8757-3.5194.5219-5.2982-.3539-1.7788-1.2272-3.4128-2.5097-4.6952-1.2824-1.2825-2.9164-2.1558-4.6952-2.5096-1.7788-.3539-3.6226-.1723-5.2982.5218-1.6756.694-3.1077 1.8694-4.1153 3.3774s-1.5454 3.2809-1.5454 5.0946c.0026 2.4312.9696 4.7621 2.6887 6.4812s4.05 2.6861 6.4813 2.6888z"/></g></svg>