<svg fill="none" height="65" viewBox="0 0 64 65" width="64" xmlns="http://www.w3.org/2000/svg"><path d="m1.37896 36.039c0-7.945-.172-15.9.074-23.834.00311-1.8156.56203-3.58665 1.60159-5.07511s2.50993-2.62295 4.21341-3.25094c3.98804-1.486 8.21804-2.938995 12.40504-3.146995 8.7857-.418195 17.5876-.367791 26.368.150999 3.843.219996 7.723 1.677996 11.353 3.148996 1.4503.58317 2.6968 1.58044 3.584 2.86742s1.3758 2.8067 1.405 4.36963c.3713 9.1006.607 18.2063.707 27.317.04 3.555-.527 7.113-.607 10.674-.176 7.856-3.814 12.861-11.564 14.237-5.1574.7583-10.3714 1.0628-15.582.91-6.132 0-12.282-.246-18.385-.81-3.1097-.3347-6.1498-1.1431-9.01504-2.397-1.53842-.6787-2.86142-1.766-3.82526-3.1438s-1.53165-2.9934-1.64174-4.6712c-.653-5.755-1.054-11.539-1.562001-17.311zm4.621.811-.813.026c.438 5.034.824 10.073 1.338 15.1.236 2.318 1.127 4.537 3.4 5.444 2.34544.9983 4.82494 1.6463 7.35904 1.923 6.359.522 12.745.867 19.124.929 4.4709.1004 8.942-.1914 13.362-.872 5.5-.926 8.117-4.018 8.388-9 .628-11.591 1.643-23.167.582-34.8-.555-6.08004-2-8.22805-7.911-9.81205-1.1149-.33039-2.2635-.53401-3.424-.607-8.374-.288-16.76-.84699-25.124-.61999-4.293.116-8.6 1.47599-12.80004 2.65399-2.357.662-3.609 2.45701-3.548 5.28705.177 8.111.067 16.23.067 24.348zm24.64404 9.479c-8.063-.192-13.79-5.093-14.59-12.486-.759-7.011 4.627-14.189 12.121-16.156 10.5-2.757 20.17 4.6 19.126 14.555-.837 7.958-8.321 14.286-16.66 14.087zm-.718-4.218c3.3313.1437 6.5963-.9619 9.155-3.1 5.606-4.716 5.257-12.381-.706-16.277-4.035-2.636-11-1.468-14.871 2.494-3.065 3.136-4.073 7.38-2.46 10.961.7461 1.7419 1.9828 3.2292 3.5593 4.2806 1.5765 1.0515 3.4248 1.6218 5.3197 1.6414zm20.1-30.221c-1.362-.394-3.091 1.465-2.995 2.954.1 1.547 1.036 2.7 2.544 2.313 1.107-.28 1.99-1.448 3.541-2.667-1.411-1.237-2.134-2.324-3.09-2.6z" fill="#000"/></svg>