<svg fill="none" height="60" viewBox="0 0 64 60" width="64" xmlns="http://www.w3.org/2000/svg"><path d="m21.1562 8.19039c.2546-.33679.4747-.69827.657-1.079 1.973-5.419 6.129-7.400002 11.534-7.0780021 4.443.2640001 8.8821.7310001 13.3001 1.3120021 3.823.5 5.9929 2.928 6.7699 6.652.6351 2.65691 1.9117 5.11771 3.7181 7.16701 2.321 2.915 3.4449 6.9 4.6309 10.574 2.3 7.123 1.967 14.393.416 21.632-1.47 6.861-6.253 10.358-12.735 11.155-11.8653 1.4781-23.8629 1.563-35.748.253-8.39995-.934-13.454951-6.61-13.6659514-15.591-.1489996-6.367.2380004-12.749.4640004-19.121.317-8.935 10.400051-17.90001 18.940051-15.89201.5706.06918 1.1471.07454 1.7189.016zm38.175 28.42701c-.0508-5.8349-1.3621-11.59-3.844-16.871-.665-1.29-2.091-2.166-3.043-3.334-.8558-.9669-1.5635-2.0554-2.1-3.23-.508-1.4912-.9031-3.0185-1.1819-4.56901-.096-.79362-.4566-1.53177-1.0235-2.0953-.567-.56354-1.3074-.91959-2.1016-1.0107-4.919-.517-9.844-1.038-14.78-1.333-1.1325-.09694-2.2645.19291-3.2111.82222-.9466.62932-1.6519 1.56094-2.0009 2.64278-.558 1.374-1.334 2.66001-2.029 3.97601-.8 1.512-1.814 1.9-3.658 1.53-2.307-.459-5.042-.878-7.1-.068-5.84395 2.3-8.86195 7.771-8.67795 14.1.067 2.316-.163 4.639-.184 6.959-.031 3.558-.377 7.168.1 10.662.626 4.589 2.708 8.515 7.94105 9.253 3.922.6134 7.8818.9555 11.8509 1.024 7.782.012 15.6151.167 23.3311-.65 7.641-.809 9.4439-3.369 10.7859-9.663.4465-2.6976.7556-5.4161.926-8.145zm-36.134-1.885c-.0467 1.7707.2658 3.5325.9188 5.1791.653 1.6465 1.633 3.1436 2.8807 4.401 1.2476 1.2573 2.7372 2.2487 4.3787 2.9143 1.6415.6657 3.4008.9918 5.1718.9586 8.294.112 15.791-7.186 15.829-15.406.034-7.417-5.677-13-13.378-13.088-8.369-.096-15.725 6.912-15.801 15.041zm7.7261-24.347c-.3739.1704-.702.427-.9576.7488-.2555.3217-.4311.6995-.5125 1.1022-.057.493.878 1.545 1.436 1.593 3.849.33 7.716.566 11.578.566.736 0 1.473-1.178 2.21-1.813-.73-.617-1.393-1.642-2.2-1.773-2.512-.409-5.08-.479-8.293-.734-1.0956-.0311-2.1908.073-3.2609.31zm-18.3341 20.667c-2-.069-3.13795.874-3.24595 2.9-.061.3113-.04668.6326.04178.9372.08845.3046.24847.5837.46671.8138.21826.2302.48836.4049.78786.5094.2994.1045.6196.1359.9336.0916 1.768-.063 3.2941-.636 3.4251-2.789.099-1.709-.8331-2.408-2.4091-2.463zm-.6869-10.7c-1.91305-.21-2.35605 1.536-2.34705 3.039.008 1.406.76995 2.81 2.38395 2.4.959-.243 1.663-1.493 2.959-2.755-1.325-1.251-2.0929-2.588-2.9959-2.687z" fill="#000"/></svg>